<?xml version="1.0" encoding="utf-8"?>
<!-- Generator: Adobe Illustrator 16.0.0, SVG Export Plug-In . SVG Version: 6.00 Build 0)  -->
<!DOCTYPE svg PUBLIC "-//W3C//DTD SVG 1.1//EN" "http://www.w3.org/Graphics/SVG/1.1/DTD/svg11.dtd" [
	<!ENTITY ns_flows "http://ns.adobe.com/Flows/1.0/">
	<!ENTITY ns_extend "http://ns.adobe.com/Extensibility/1.0/">
	<!ENTITY ns_ai "http://ns.adobe.com/AdobeIllustrator/10.0/">
	<!ENTITY ns_graphs "http://ns.adobe.com/Graphs/1.0/">
]>
<svg version="1.1" id="Ebene_1" xmlns:x="&ns_extend;" xmlns:i="&ns_ai;" xmlns:graph="&ns_graphs;"
	 xmlns="http://www.w3.org/2000/svg" xmlns:xlink="http://www.w3.org/1999/xlink" xmlns:a="http://ns.adobe.com/AdobeSVGViewerExtensions/3.0/"
	 x="0px" y="0px" width="181.676px" height="21.544px" viewBox="0 0 181.676 21.544" enable-background="new 0 0 181.676 21.544"
	 xml:space="preserve">
<g>
	<path fill="#FFFFFF" d="M76.563,11.917h1.761l-0.881-3.053L76.563,11.917z M89.145,9.196c0-0.592-0.365-0.926-1.049-0.926h-0.502
		v1.883h0.502C88.78,10.153,89.145,9.744,89.145,9.196 M162.989,8.377h-2.201v7.986h-3.021V8.377h-2.171v-2.64h7.393V8.377z
		 M153.54,16.363h-3.004l-3.509-5.935v5.935h-2.958V5.737h3.08l3.418,6.026V5.737h2.973V16.363z M141.39,16.363h-6.071V5.737h5.95
		v2.64h-2.931v1.308h2.475v2.625h-2.475v1.412h3.052V16.363z M132.391,16.363h-2.883V9.896l-2.051,5.63h-2.748l-2.035-5.63v6.466
		h-2.898V5.737h3.932l2.369,6.315l2.398-6.315h3.916V16.363z M116.899,12.205c0,2.564-1.639,4.355-4.63,4.355
		s-4.629-1.791-4.629-4.355V5.737h3.019v6.483c0,0.986,0.623,1.609,1.61,1.609c0.988,0,1.61-0.623,1.61-1.609V5.737h3.02V12.205z
		 M105.129,14.908c-1.139,0.787-2.459,1.652-5.055,1.652c-3.447,0-5.691-2.441-5.691-5.523c0-3.054,2.244-5.497,5.691-5.497
		c2.475,0,3.871,1.229,4.447,1.927l-1.913,1.944c-0.394-0.456-1.062-1.11-2.383-1.11c-1.61,0-2.687,1.186-2.687,2.736
		c0,1.576,1.123,2.762,2.793,2.762c1.184,0,1.807-0.318,2.035-0.502v-0.592h-1.717v-2.473h4.479V14.908z M90.829,11.9l2.428,4.463
		h-3.323l-1.792-3.75h-0.548v3.75h-3.019V5.737h3.749c2.642,0,3.901,1.274,3.901,3.354C92.225,10.229,91.74,11.322,90.829,11.9
		 M82.711,16.363h-3.036l-0.638-2.033h-3.188l-0.638,2.033h-3.036l3.674-10.625h3.188L82.711,16.363z M70.311,16.363h-3.004
		l-3.509-5.935v5.935H60.84V5.737h3.08l3.418,6.026V5.737h2.973V16.363z M58.161,16.363H52.09V5.737h5.95v2.64h-2.93v1.308h2.474
		v2.625H55.11v1.412h3.051V16.363z M49.464,14.908c-1.139,0.787-2.46,1.652-5.056,1.652c-3.446,0-5.691-2.441-5.691-5.523
		c0-3.054,2.245-5.497,5.691-5.497c2.475,0,3.871,1.229,4.448,1.927l-1.913,1.944c-0.394-0.456-1.062-1.11-2.383-1.11
		c-1.61,0-2.687,1.186-2.687,2.736c0,1.576,1.123,2.762,2.793,2.762c1.184,0,1.807-0.318,2.034-0.502v-0.592h-1.715v-2.473h4.479
		V14.908z M36.767,16.363h-6.071V5.737h5.949v2.64h-2.93v1.308h2.475v2.625h-2.475v1.412h3.052V16.363z M28.069,14.908
		c-1.138,0.787-2.459,1.652-5.055,1.652c-3.446,0-5.692-2.441-5.692-5.523c0-3.054,2.246-5.497,5.692-5.497
		c2.474,0,3.871,1.229,4.448,1.927l-1.913,1.944c-0.395-0.456-1.063-1.11-2.384-1.11c-1.609,0-2.687,1.186-2.687,2.736
		c0,1.576,1.124,2.762,2.794,2.762c1.184,0,1.806-0.318,2.034-0.502v-0.592H23.59v-2.473h4.479V14.908z M181.676,10.771L169.943,0
		H11.702L0,10.771l10.787,10.773h159.81L181.676,10.771z"/>
</g>
</svg>
